<svg width="30" height="30" viewBox="0 0 30 30" fill="none" xmlns="http://www.w3.org/2000/svg">
<path d="M18.955 20.0385L20.9224 18.0711C21.1569 17.8366 21.2886 17.5187 21.2886 17.1872C21.2886 16.8557 21.1569 16.5377 20.9224 16.3033C20.688 16.0689 20.3701 15.9372 20.0386 15.9372C19.707 15.9372 19.3891 16.0689 19.1547 16.3033L17.1872 18.2708L13.6517 14.7352C13.4172 14.5008 13.0993 14.3691 12.7678 14.3691C12.4363 14.3691 12.1183 14.5008 11.8839 14.7352C11.6495 14.9697 11.5178 15.2876 11.5178 15.6191C11.5178 15.9506 11.6495 16.2686 11.8839 16.503L15.4194 20.0385L15.9564 19.5016C15.722 19.736 15.9564 19.5016 15.4194 20.0385C16.0509 20.6571 16.0689 20.688 16.3033 20.9224C16.5377 21.1569 17.1872 21.8063 17.1872 21.8063C17.8122 21.1813 17.4898 21.5038 17.7242 21.2693L17.1872 21.8063C18.955 20.0385 17.1872 21.8063 17.4461 21.5474C18.2479 20.5814 17.1872 21.8063 17.4461 21.5474C17.6805 21.313 18.0711 20.9224 18.6961 20.2974C18.955 20.0385 17.1872 21.8063 18.955 20.0385Z" fill="white" fill-opacity="0.55"/>
<path d="M25.875 9.43773H17.125L13.8375 5.46273C13.7212 5.31934 13.5745 5.2035 13.4081 5.12353C13.2417 5.04356 13.0596 5.00145 12.875 5.00023H7.125C6.30826 4.99021 5.52083 5.30423 4.93512 5.87353C4.34942 6.44284 4.01317 7.22104 4 8.03773V23.2127C4.01317 24.0294 4.34942 24.8076 4.93512 25.3769C5.52083 25.9462 6.30826 26.2603 7.125 26.2502H25.875C26.6917 26.2603 27.4792 25.9462 28.0649 25.3769C28.6506 24.8076 28.9868 24.0294 29 23.2127V12.4752C28.9868 11.6585 28.6506 10.8803 28.0649 10.311C27.4792 9.74173 26.6917 9.42771 25.875 9.43773ZM26.5 23.1877C26.4953 23.2644 26.4753 23.3394 26.4411 23.4082C26.4069 23.4771 26.3593 23.5384 26.301 23.5885C26.2427 23.6386 26.175 23.6765 26.1019 23.7C26.0287 23.7235 25.9515 23.7321 25.875 23.7252H7.125C7.04846 23.7321 6.97132 23.7235 6.89815 23.7C6.82498 23.6765 6.75726 23.6386 6.699 23.5885C6.64073 23.5384 6.5931 23.4771 6.55892 23.4082C6.52474 23.3394 6.50471 23.2644 6.5 23.1877V8.03773C6.50471 7.96103 6.52474 7.88605 6.55892 7.81722C6.5931 7.74839 6.64073 7.68711 6.699 7.637C6.75726 7.5869 6.82498 7.54898 6.89815 7.52548C6.97132 7.50199 7.04846 7.49341 7.125 7.50023H12.2875L15.5375 11.4752C15.6538 11.6186 15.8005 11.7345 15.9669 11.8144C16.1333 11.8944 16.3154 11.9365 16.5 11.9377H25.875C25.9515 11.9309 26.0287 11.9395 26.1019 11.963C26.175 11.9865 26.2427 12.0244 26.301 12.0745C26.3593 12.1246 26.4069 12.1859 26.4411 12.2547C26.4753 12.3235 26.4953 12.3985 26.5 12.4752V23.1877Z" fill="white" fill-opacity="0.55"/>
</svg>
