<svg width="26" height="22" viewBox="0 0 26 22" fill="none" xmlns="http://www.w3.org/2000/svg">
<path d="M13.7438 15.4119L17.2888 11.8763C17.5233 11.6419 17.655 11.324 17.655 10.9925C17.655 10.6609 17.5233 10.343 17.2888 10.1086C17.0544 9.87416 16.7365 9.74246 16.405 9.74246C16.0734 9.74246 15.7555 9.87416 15.5211 10.1086L11.976 13.6441L10.4228 11.9894C10.1883 11.755 9.87039 11.6233 9.53887 11.6233C9.20735 11.6233 8.8894 11.755 8.65498 11.9894C8.42056 12.2238 8.28887 12.5418 8.28887 12.8733C8.28887 13.2048 8.42056 13.5227 8.65498 13.7572L10.2083 15.4119L10.7453 14.8749C10.5108 15.1093 10.7453 14.8749 10.2083 15.4119C10.8397 16.0304 10.8577 16.0613 11.0922 16.2958C11.3266 16.5302 11.976 17.1796 11.976 17.1796C12.601 16.5546 12.2786 16.8771 12.513 16.6427L11.976 17.1796C13.7438 15.4119 11.976 17.1796 12.2349 16.9208C13.0367 15.9548 11.976 17.1796 12.2349 16.9208C12.4693 16.6863 12.8599 16.2958 13.4849 15.6708C13.7438 15.4119 11.976 17.1796 13.7438 15.4119Z" fill="white" fill-opacity="0.55"/>
<path d="M22.375 4.80773H13.625L10.3375 0.832728C10.2212 0.689336 10.0745 0.573494 9.90812 0.493525C9.7417 0.413557 9.55963 0.371449 9.375 0.370228H3.625C2.80826 0.360201 2.02083 0.674221 1.43512 1.24353C0.849416 1.81283 0.513166 2.59103 0.5 3.40773V18.5827C0.513166 19.3994 0.849416 20.1776 1.43512 20.7469C2.02083 21.3162 2.80826 21.6303 3.625 21.6202H22.375C23.1917 21.6303 23.9792 21.3162 24.5649 20.7469C25.1506 20.1776 25.4868 19.3994 25.5 18.5827V7.84523C25.4868 7.02853 25.1506 6.25033 24.5649 5.68103C23.9792 5.11172 23.1917 4.7977 22.375 4.80773ZM23 18.5577C22.9953 18.6344 22.9753 18.7094 22.9411 18.7782C22.9069 18.8471 22.8593 18.9083 22.801 18.9585C22.7427 19.0086 22.675 19.0465 22.6019 19.07C22.5287 19.0935 22.4515 19.1021 22.375 19.0952H3.625C3.54846 19.1021 3.47132 19.0935 3.39815 19.07C3.32498 19.0465 3.25726 19.0086 3.199 18.9585C3.14073 18.9083 3.0931 18.8471 3.05892 18.7782C3.02474 18.7094 3.00471 18.6344 3 18.5577V3.40773C3.00471 3.33102 3.02474 3.25604 3.05892 3.18721C3.0931 3.11839 3.14073 3.05711 3.199 3.007C3.25726 2.95689 3.32498 2.91897 3.39815 2.89548C3.47132 2.87199 3.54846 2.8634 3.625 2.87023H8.7875L12.0375 6.84523C12.1538 6.98862 12.3005 7.10446 12.4669 7.18443C12.6333 7.2644 12.8154 7.30651 13 7.30773H22.375C22.4515 7.3009 22.5287 7.30949 22.6019 7.33298C22.675 7.35647 22.7427 7.39439 22.801 7.4445C22.8593 7.49461 22.9069 7.55589 22.9411 7.62471C22.9753 7.69354 22.9953 7.76852 23 7.84523V18.5577Z" fill="white" fill-opacity="0.55"/>
</svg>
